<svg width="1600" height="900" viewBox="0 0 1600 900" fill="none" xmlns="http://www.w3.org/2000/svg">
<path d="M328.092 844H198.06L64.0115 585.442H61.7523C62.5891 593.308 63.3421 602.763 64.0115 613.808C64.6809 624.853 65.2667 636.149 65.7687 647.697C66.2708 659.077 66.5218 669.369 66.5218 678.573V844H-21.3377V476.998H108.192L241.739 732.042H243.245C242.743 724.009 242.241 714.721 241.739 704.178C241.237 693.467 240.735 682.673 240.233 671.795C239.898 660.917 239.731 651.295 239.731 642.927V476.998H328.092V844ZM750.822 659.997C750.822 688.279 747.391 714.052 740.53 737.313C733.836 760.408 723.293 780.323 708.9 797.058C694.508 813.793 676.016 826.679 653.423 835.716C630.831 844.586 603.804 849.021 572.342 849.021C541.549 849.021 514.856 844.586 492.264 835.716C469.839 826.679 451.347 813.877 436.787 797.309C422.227 780.574 411.433 760.575 404.404 737.313C397.376 714.052 393.861 688.112 393.861 659.495C393.861 621.339 400.137 588.203 412.688 560.088C425.407 531.806 444.987 509.966 471.429 494.57C497.87 479.006 531.675 471.225 572.844 471.225C614.682 471.225 648.654 479.006 674.761 494.57C701.035 510.134 720.28 532.057 732.497 560.339C744.714 588.622 750.822 621.841 750.822 659.997ZM498.289 659.997C498.289 682.087 500.799 701.082 505.819 716.98C510.84 732.879 518.789 745.095 529.667 753.63C540.545 762.165 554.77 766.433 572.342 766.433C590.583 766.433 605.059 762.165 615.769 753.63C626.647 745.095 634.429 732.879 639.115 716.98C643.968 701.082 646.395 682.087 646.395 659.997C646.395 626.861 640.872 600.671 629.827 581.426C618.782 562.18 599.787 552.557 572.844 552.557C554.937 552.557 540.461 556.909 529.416 565.611C518.538 574.313 510.589 586.697 505.568 602.763C500.715 618.829 498.289 637.907 498.289 659.997ZM695.094 367.299V372.571C689.069 377.424 681.371 383.365 671.999 390.394C662.628 397.255 652.67 404.451 642.127 411.982C631.751 419.346 621.627 426.374 611.753 433.068C602.047 439.763 593.679 445.285 586.65 449.636H521.383V442.356C527.24 435.997 534.269 428.466 542.469 419.764C550.67 410.894 558.87 401.857 567.07 392.653C575.27 383.449 582.132 374.998 587.654 367.299H695.094ZM1057.08 732.544C1057.08 752.459 1052.05 771.369 1042.01 789.276C1031.97 807.015 1016.33 821.408 995.071 832.453C973.985 843.498 946.707 849.021 913.237 849.021C896.501 849.021 881.774 848.267 869.056 846.761C856.504 845.255 844.79 842.829 833.912 839.482C823.034 835.967 811.738 831.449 800.023 825.926V737.564C819.938 747.606 840.02 755.304 860.27 760.659C880.519 765.847 898.844 768.441 915.245 768.441C925.119 768.441 933.151 767.269 939.343 764.926C945.703 762.584 950.389 759.404 953.401 755.387C956.413 751.204 957.919 746.434 957.919 741.079C957.919 734.719 955.66 729.364 951.142 725.013C946.791 720.495 939.762 715.809 930.055 710.956C920.349 706.102 907.547 700.078 891.648 692.882C878.093 686.522 865.792 679.996 854.747 673.302C843.869 666.607 834.498 658.993 826.632 650.458C818.934 641.756 812.993 631.631 808.809 620.084C804.625 608.536 802.534 594.897 802.534 579.166C802.534 555.57 808.307 535.822 819.854 519.924C831.569 503.858 847.802 491.809 868.554 483.776C889.473 475.743 913.571 471.727 940.85 471.727C964.781 471.727 986.285 474.404 1005.36 479.76C1024.61 485.115 1041.85 491.223 1057.08 498.085L1026.7 574.648C1010.97 567.452 995.49 561.762 980.261 557.578C965.032 553.227 950.891 551.051 937.837 551.051C929.302 551.051 922.274 552.139 916.751 554.315C911.396 556.323 907.379 559.084 904.702 562.599C902.191 566.113 900.936 570.129 900.936 574.648C900.936 580.338 903.112 585.442 907.463 589.96C911.981 594.479 919.429 599.416 929.804 604.771C940.347 609.959 954.656 616.737 972.73 625.104C990.637 633.137 1005.87 641.839 1018.42 651.211C1030.97 660.415 1040.51 671.544 1047.03 684.598C1053.73 697.484 1057.08 713.466 1057.08 732.544Z" fill="#FEFEFE" fill-opacity="0.07"/>
<path d="M49.961 349.839H-28.9491V53.2672H146.317V117.572H49.961V174.168H138.811V238.473H49.961V349.839ZM472.505 201.148C472.505 224.002 469.733 244.829 464.188 263.627C458.779 282.289 450.259 298.382 438.629 311.906C426.999 325.429 412.055 335.843 393.798 343.145C375.541 350.313 353.701 353.896 328.276 353.896C303.393 353.896 281.823 350.313 263.566 343.145C245.444 335.843 230.501 325.497 218.735 312.109C206.97 298.585 198.247 282.424 192.567 263.627C186.887 244.829 184.047 223.867 184.047 200.742C184.047 169.908 189.119 143.131 199.261 120.412C209.539 97.557 225.362 79.9087 246.729 67.467C268.096 54.8901 295.414 48.6016 328.682 48.6016C362.491 48.6016 389.944 54.8901 411.041 67.467C432.273 80.0439 447.825 97.7598 457.697 120.615C467.569 143.47 472.505 170.314 472.505 201.148ZM268.434 201.148C268.434 218.999 270.463 234.348 274.52 247.195C278.577 260.043 285.001 269.915 293.791 276.812C302.582 283.709 314.077 287.158 328.276 287.158C343.017 287.158 354.715 283.709 363.37 276.812C372.16 269.915 378.449 260.043 382.235 247.195C386.157 234.348 388.118 218.999 388.118 201.148C388.118 174.371 383.655 153.207 374.73 137.654C365.804 122.102 350.455 114.326 328.682 114.326C314.212 114.326 302.514 117.842 293.588 124.875C284.798 131.907 278.374 141.914 274.317 154.897C270.395 167.88 268.434 183.296 268.434 201.148ZM623.226 53.2672C650.138 53.2672 672.519 56.5805 690.37 63.2071C708.221 69.6984 721.61 79.4354 730.535 92.418C739.596 105.401 744.127 121.561 744.127 140.9C744.127 152.936 742.098 163.89 738.041 173.762C733.984 183.635 728.169 192.493 720.596 200.336C713.158 208.045 704.232 214.806 693.819 220.622L780.235 349.839H689.356L626.471 241.921H606.186V349.839H526.059V53.2672H623.226ZM622.009 113.921H606.186V181.674H621.197C633.504 181.674 643.579 178.969 651.422 173.56C659.266 168.15 663.188 158.481 663.188 144.551C663.188 134.95 659.942 127.444 653.451 122.035C646.96 116.625 636.479 113.921 622.009 113.921ZM886.124 349.839H807.214V53.2672H982.48V117.572H886.124V174.168H974.974V238.473H886.124V349.839ZM1283.31 53.2672V231.779C1283.31 256.662 1278.58 278.3 1269.11 296.692C1259.65 314.949 1245.45 329.081 1226.51 339.088C1207.58 348.96 1183.85 353.896 1155.31 353.896C1114.47 353.896 1083.3 343.416 1061.8 322.454C1040.29 301.493 1029.54 271.876 1029.54 233.604V53.2672H1110.07V227.316C1110.07 248.277 1114 263.491 1121.84 272.958C1129.68 282.424 1141.25 287.158 1156.53 287.158C1167.48 287.158 1176.41 285.129 1183.3 281.072C1190.2 276.88 1195.21 270.321 1198.32 261.395C1201.56 252.47 1203.18 240.975 1203.18 226.91V53.2672H1283.31ZM1627.96 349.839H1522.88L1414.56 140.9H1412.73C1413.41 147.256 1414.02 154.897 1414.56 163.823C1415.1 172.748 1415.57 181.877 1415.98 191.208C1416.38 200.404 1416.59 208.721 1416.59 216.159V349.839H1345.59V53.2672H1450.26L1558.18 259.367H1559.4C1558.99 252.875 1558.58 245.37 1558.18 236.85C1557.77 228.195 1557.37 219.472 1556.96 210.682C1556.69 201.891 1556.56 194.115 1556.56 187.354V53.2672H1627.96V349.839Z" fill="#FEFEFE" fill-opacity="0.07"/>
</svg>
