<svg width="430" height="661" viewBox="0 0 430 661" fill="none" xmlns="http://www.w3.org/2000/svg">
<path d="M143.367 603H92.7812L40.6328 502.414H39.7539C40.0794 505.474 40.3724 509.152 40.6328 513.449C40.8932 517.746 41.1211 522.141 41.3164 526.633C41.5117 531.06 41.6094 535.064 41.6094 538.645V603H7.42969V460.227H57.8203L109.773 559.445H110.359C110.164 556.32 109.969 552.707 109.773 548.605C109.578 544.439 109.383 540.24 109.188 536.008C109.057 531.776 108.992 528.033 108.992 524.777V460.227H143.367V603ZM307.82 531.418C307.82 542.421 306.486 552.447 303.816 561.496C301.212 570.48 297.111 578.228 291.512 584.738C285.913 591.249 278.719 596.262 269.93 599.777C261.141 603.228 250.626 604.953 238.387 604.953C226.408 604.953 216.023 603.228 207.234 599.777C198.51 596.262 191.316 591.281 185.652 584.836C179.988 578.326 175.789 570.546 173.055 561.496C170.32 552.447 168.953 542.355 168.953 531.223C168.953 516.379 171.395 503.488 176.277 492.551C181.225 481.548 188.842 473.052 199.129 467.062C209.415 461.008 222.566 457.98 238.582 457.98C254.858 457.98 268.074 461.008 278.23 467.062C288.452 473.117 295.939 481.646 300.691 492.648C305.444 503.651 307.82 516.574 307.82 531.418ZM209.578 531.418C209.578 540.012 210.555 547.401 212.508 553.586C214.461 559.771 217.553 564.523 221.785 567.844C226.017 571.164 231.551 572.824 238.387 572.824C245.483 572.824 251.115 571.164 255.281 567.844C259.513 564.523 262.54 559.771 264.363 553.586C266.251 547.401 267.195 540.012 267.195 531.418C267.195 518.527 265.047 508.339 260.75 500.852C256.453 493.365 249.064 489.621 238.582 489.621C231.616 489.621 225.984 491.314 221.688 494.699C217.456 498.085 214.363 502.902 212.41 509.152C210.522 515.402 209.578 522.824 209.578 531.418ZM286.141 417.551V419.602C283.797 421.49 280.802 423.801 277.156 426.535C273.51 429.204 269.637 432.004 265.535 434.934C261.499 437.798 257.56 440.533 253.719 443.137C249.943 445.741 246.688 447.889 243.953 449.582H218.562V446.75C220.841 444.276 223.576 441.346 226.766 437.961C229.956 434.51 233.146 430.995 236.336 427.414C239.526 423.833 242.195 420.546 244.344 417.551H286.141ZM426.961 559.641C426.961 567.388 425.008 574.745 421.102 581.711C417.195 588.612 411.108 594.211 402.84 598.508C394.637 602.805 384.025 604.953 371.004 604.953C364.493 604.953 358.764 604.66 353.816 604.074C348.934 603.488 344.376 602.544 340.145 601.242C335.913 599.875 331.518 598.117 326.961 595.969V561.594C334.708 565.5 342.521 568.495 350.398 570.578C358.276 572.596 365.405 573.605 371.785 573.605C375.626 573.605 378.751 573.15 381.16 572.238C383.634 571.327 385.457 570.09 386.629 568.527C387.801 566.9 388.387 565.044 388.387 562.961C388.387 560.487 387.508 558.404 385.75 556.711C384.057 554.953 381.323 553.13 377.547 551.242C373.771 549.354 368.79 547.01 362.605 544.211C357.332 541.737 352.547 539.198 348.25 536.594C344.018 533.99 340.372 531.027 337.312 527.707C334.318 524.322 332.007 520.383 330.379 515.891C328.751 511.398 327.938 506.092 327.938 499.973C327.938 490.793 330.184 483.111 334.676 476.926C339.233 470.676 345.548 465.988 353.621 462.863C361.759 459.738 371.134 458.176 381.746 458.176C391.056 458.176 399.422 459.217 406.844 461.301C414.331 463.384 421.036 465.76 426.961 468.43L415.145 498.215C409.025 495.415 403.003 493.202 397.078 491.574C391.154 489.882 385.652 489.035 380.574 489.035C377.254 489.035 374.52 489.458 372.371 490.305C370.288 491.086 368.725 492.16 367.684 493.527C366.707 494.895 366.219 496.457 366.219 498.215C366.219 500.428 367.065 502.414 368.758 504.172C370.516 505.93 373.413 507.85 377.449 509.934C381.551 511.952 387.117 514.589 394.148 517.844C401.115 520.969 407.039 524.354 411.922 528C416.805 531.581 420.516 535.91 423.055 540.988C425.659 546.001 426.961 552.219 426.961 559.641Z" fill="#B1B9D8" fill-opacity="0.05"/>
<path d="M64.418 190H26.4297V47.2266H110.805V78.1836H64.418V105.43H107.191V136.387H64.418V190ZM267.836 118.418C267.836 129.421 266.501 139.447 263.832 148.496C261.228 157.48 257.126 165.228 251.527 171.738C245.928 178.249 238.734 183.262 229.945 186.777C221.156 190.228 210.642 191.953 198.402 191.953C186.423 191.953 176.039 190.228 167.25 186.777C158.526 183.262 151.332 178.281 145.668 171.836C140.004 165.326 135.805 157.546 133.07 148.496C130.336 139.447 128.969 129.355 128.969 118.223C128.969 103.379 131.41 90.4883 136.293 79.5508C141.241 68.5482 148.858 60.0521 159.145 54.0625C169.431 48.0078 182.582 44.9805 198.598 44.9805C214.874 44.9805 228.09 48.0078 238.246 54.0625C248.467 60.1172 255.954 68.6458 260.707 79.6484C265.46 90.651 267.836 103.574 267.836 118.418ZM169.594 118.418C169.594 127.012 170.57 134.401 172.523 140.586C174.477 146.771 177.569 151.523 181.801 154.844C186.033 158.164 191.566 159.824 198.402 159.824C205.499 159.824 211.13 158.164 215.297 154.844C219.529 151.523 222.556 146.771 224.379 140.586C226.267 134.401 227.211 127.012 227.211 118.418C227.211 105.527 225.062 95.3385 220.766 87.8516C216.469 80.3646 209.079 76.6211 198.598 76.6211C191.632 76.6211 186 78.3138 181.703 81.6992C177.471 85.0846 174.379 89.9023 172.426 96.1523C170.538 102.402 169.594 109.824 169.594 118.418ZM340.395 47.2266C353.35 47.2266 364.125 48.8216 372.719 52.0117C381.312 55.1367 387.758 59.8242 392.055 66.0742C396.417 72.3242 398.598 80.1042 398.598 89.4141C398.598 95.2083 397.621 100.482 395.668 105.234C393.715 109.987 390.915 114.251 387.27 118.027C383.689 121.738 379.392 124.993 374.379 127.793L415.98 190H372.23L341.957 138.047H332.191V190H293.617V47.2266H340.395ZM339.809 76.4258H332.191V109.043H339.418C345.342 109.043 350.193 107.741 353.969 105.137C357.745 102.533 359.633 97.8776 359.633 91.1719C359.633 86.5495 358.07 82.9362 354.945 80.332C351.82 77.7279 346.775 76.4258 339.809 76.4258Z" fill="#B1B9D8" fill-opacity="0.05"/>
<path d="M53.418 389H15.4297V246.227H99.8047V277.184H53.418V304.43H96.1914V335.387H53.418V389ZM244.629 246.227V332.164C244.629 344.143 242.35 354.56 237.793 363.414C233.236 372.203 226.4 379.007 217.285 383.824C208.171 388.577 196.745 390.953 183.008 390.953C163.346 390.953 148.34 385.908 137.988 375.816C127.637 365.725 122.461 351.467 122.461 333.043V246.227H161.23V330.016C161.23 340.107 163.118 347.431 166.895 351.988C170.671 356.546 176.237 358.824 183.594 358.824C188.867 358.824 193.164 357.848 196.484 355.895C199.805 353.876 202.214 350.719 203.711 346.422C205.273 342.125 206.055 336.591 206.055 329.82V246.227H244.629ZM410.547 389H359.961L307.812 288.414H306.934C307.259 291.474 307.552 295.152 307.812 299.449C308.073 303.746 308.301 308.141 308.496 312.633C308.691 317.06 308.789 321.064 308.789 324.645V389H274.609V246.227H325L376.953 345.445H377.539C377.344 342.32 377.148 338.707 376.953 334.605C376.758 330.439 376.562 326.24 376.367 322.008C376.237 317.776 376.172 314.033 376.172 310.777V246.227H410.547V389Z" fill="#B1B9D8" fill-opacity="0.05"/>
</svg>
