<svg width="499" height="180" viewBox="0 0 499 180" fill="none" xmlns="http://www.w3.org/2000/svg">
<g filter="url(#filter0_d_2165_2)">
<path d="M50.032 148V78.496H22.512V58.4H102.768V78.496H75.376V148H50.032ZM156.144 149.792C148.976 149.792 142.363 148.64 136.304 146.336C130.245 144.032 124.955 140.789 120.432 136.608C115.995 132.341 112.539 127.392 110.064 121.76C107.589 116.128 106.352 109.941 106.352 103.2C106.352 96.4587 107.589 90.272 110.064 84.64C112.539 79.008 115.995 74.1013 120.432 69.92C124.955 65.6533 130.245 62.368 136.304 60.064C142.363 57.76 148.976 56.608 156.144 56.608C163.397 56.608 170.011 57.76 175.984 60.064C182.043 62.368 187.291 65.6533 191.728 69.92C196.165 74.1013 199.621 79.008 202.096 84.64C204.656 90.272 205.936 96.4587 205.936 103.2C205.936 109.941 204.656 116.171 202.096 121.888C199.621 127.52 196.165 132.427 191.728 136.608C187.291 140.789 182.043 144.032 175.984 146.336C170.011 148.64 163.397 149.792 156.144 149.792ZM156.144 128.8C159.557 128.8 162.715 128.203 165.616 127.008C168.603 125.813 171.163 124.107 173.296 121.888C175.515 119.584 177.221 116.853 178.416 113.696C179.696 110.539 180.336 107.04 180.336 103.2C180.336 99.2747 179.696 95.776 178.416 92.704C177.221 89.5467 175.515 86.8587 173.296 84.64C171.163 82.336 168.603 80.5867 165.616 79.392C162.715 78.1973 159.557 77.6 156.144 77.6C152.731 77.6 149.531 78.1973 146.544 79.392C143.643 80.5867 141.083 82.336 138.864 84.64C136.731 86.8587 135.024 89.5467 133.744 92.704C132.549 95.776 131.952 99.2747 131.952 103.2C131.952 107.04 132.549 110.539 133.744 113.696C135.024 116.853 136.731 119.584 138.864 121.888C141.083 124.107 143.643 125.813 146.544 127.008C149.531 128.203 152.731 128.8 156.144 128.8ZM219.21 148V58.4H260.17C268.362 58.4 275.402 59.7227 281.29 62.368C287.263 65.0133 291.871 68.8533 295.114 73.888C298.357 78.8373 299.978 84.7253 299.978 91.552C299.978 98.2933 298.357 104.139 295.114 109.088C291.871 114.037 287.263 117.877 281.29 120.608C275.402 123.253 268.362 124.576 260.17 124.576H233.29L244.554 113.568V148H219.21ZM244.554 116.256L233.29 104.608H258.634C263.925 104.608 267.85 103.456 270.41 101.152C273.055 98.848 274.378 95.648 274.378 91.552C274.378 87.3707 273.055 84.128 270.41 81.824C267.85 79.52 263.925 78.368 258.634 78.368H233.29L244.554 66.72V116.256ZM359.283 148V67.488L370.163 77.984H342.643V58.4H384.627V148H359.283ZM437.654 149.792C429.974 149.792 423.147 147.957 417.174 144.288C411.286 140.619 406.635 135.328 403.222 128.416C399.809 121.504 398.102 113.099 398.102 103.2C398.102 93.3013 399.809 84.896 403.222 77.984C406.635 71.072 411.286 65.7813 417.174 62.112C423.147 58.4427 429.974 56.608 437.654 56.608C445.249 56.608 451.99 58.4427 457.878 62.112C463.851 65.7813 468.545 71.072 471.958 77.984C475.371 84.896 477.078 93.3013 477.078 103.2C477.078 113.099 475.371 121.504 471.958 128.416C468.545 135.328 463.851 140.619 457.878 144.288C451.99 147.957 445.249 149.792 437.654 149.792ZM437.654 129.056C440.385 129.056 442.774 128.203 444.822 126.496C446.955 124.789 448.619 122.059 449.814 118.304C451.009 114.464 451.606 109.429 451.606 103.2C451.606 96.8853 451.009 91.8507 449.814 88.096C448.619 84.3413 446.955 81.6107 444.822 79.904C442.774 78.1973 440.385 77.344 437.654 77.344C434.923 77.344 432.491 78.1973 430.358 79.904C428.31 81.6107 426.646 84.3413 425.366 88.096C424.171 91.8507 423.574 96.8853 423.574 103.2C423.574 109.429 424.171 114.464 425.366 118.304C426.646 122.059 428.31 124.789 430.358 126.496C432.491 128.203 434.923 129.056 437.654 129.056Z" fill="white"/>
</g>
<g filter="url(#filter1_d_2165_2)">
<path d="M29.2 31.56H44V34.12H29.2V31.56ZM29.52 46H26.56V18H45.76V20.56H29.52V46ZM63.7609 46.24C61.6543 46.24 59.6943 45.8933 57.8809 45.2C56.0943 44.48 54.5343 43.48 53.2009 42.2C51.8943 40.8933 50.8676 39.3867 50.1209 37.68C49.4009 35.9467 49.0409 34.0533 49.0409 32C49.0409 29.9467 49.4009 28.0667 50.1209 26.36C50.8676 24.6267 51.8943 23.12 53.2009 21.84C54.5343 20.5333 56.0943 19.5333 57.8809 18.84C59.6676 18.12 61.6276 17.76 63.7609 17.76C65.8676 17.76 67.8143 18.12 69.6009 18.84C71.3876 19.5333 72.9343 20.52 74.2409 21.8C75.5743 23.08 76.6009 24.5867 77.3209 26.32C78.0676 28.0533 78.4409 29.9467 78.4409 32C78.4409 34.0533 78.0676 35.9467 77.3209 37.68C76.6009 39.4133 75.5743 40.92 74.2409 42.2C72.9343 43.48 71.3876 44.48 69.6009 45.2C67.8143 45.8933 65.8676 46.24 63.7609 46.24ZM63.7609 43.6C65.4409 43.6 66.9876 43.32 68.4009 42.76C69.8409 42.1733 71.0809 41.36 72.1209 40.32C73.1876 39.2533 74.0143 38.0267 74.6009 36.64C75.1876 35.2267 75.4809 33.68 75.4809 32C75.4809 30.32 75.1876 28.7867 74.6009 27.4C74.0143 25.9867 73.1876 24.76 72.1209 23.72C71.0809 22.6533 69.8409 21.84 68.4009 21.28C66.9876 20.6933 65.4409 20.4 63.7609 20.4C62.0809 20.4 60.5209 20.6933 59.0809 21.28C57.6409 21.84 56.3876 22.6533 55.3209 23.72C54.2809 24.76 53.4543 25.9867 52.8409 27.4C52.2543 28.7867 51.9609 30.32 51.9609 32C51.9609 33.6533 52.2543 35.1867 52.8409 36.6C53.4543 38.0133 54.2809 39.2533 55.3209 40.32C56.3876 41.36 57.6409 42.1733 59.0809 42.76C60.5209 43.32 62.0809 43.6 63.7609 43.6ZM85.0756 46V18H95.5556C97.929 18 99.969 18.3867 101.676 19.16C103.382 19.9067 104.689 21 105.596 22.44C106.529 23.8533 106.996 25.5733 106.996 27.6C106.996 29.5733 106.529 31.28 105.596 32.72C104.689 34.1333 103.382 35.2267 101.676 36C99.969 36.7467 97.929 37.12 95.5556 37.12H86.7156L88.0356 35.76V46H85.0756ZM104.196 46L96.9956 35.84H100.196L107.436 46H104.196ZM88.0356 36L86.7156 34.6H95.4756C98.2756 34.6 100.396 33.9867 101.836 32.76C103.302 31.5333 104.036 29.8133 104.036 27.6C104.036 25.36 103.302 23.6267 101.836 22.4C100.396 21.1733 98.2756 20.56 95.4756 20.56H86.7156L88.0356 19.16V36ZM116.622 31.56H131.422V34.12H116.622V31.56ZM116.942 46H113.982V18H133.182V20.56H116.942V46ZM150.574 46.24C147.001 46.24 144.188 45.2133 142.134 43.16C140.081 41.1067 139.054 38.0667 139.054 34.04V18H142.014V33.92C142.014 37.2267 142.761 39.6667 144.254 41.24C145.748 42.8133 147.854 43.6 150.574 43.6C153.321 43.6 155.441 42.8133 156.934 41.24C158.428 39.6667 159.174 37.2267 159.174 33.92V18H162.054V34.04C162.054 38.0667 161.028 41.1067 158.974 43.16C156.948 45.2133 154.148 46.24 150.574 46.24ZM170.974 46V18H173.414L192.734 42.32H191.454V18H194.374V46H191.934L172.654 21.68H173.934V46H170.974Z" fill="white"/>
</g>
<defs>
<filter id="filter0_d_2165_2" x="0.614214" y="38.8607" width="498.362" height="136.98" filterUnits="userSpaceOnUse" color-interpolation-filters="sRGB">
<feFlood flood-opacity="0" result="BackgroundImageFix"/>
<feColorMatrix in="SourceAlpha" type="matrix" values="0 0 0 0 0 0 0 0 0 0 0 0 0 0 0 0 0 0 127 0" result="hardAlpha"/>
<feOffset dy="4.15047"/>
<feGaussianBlur stdDeviation="10.9489"/>
<feColorMatrix type="matrix" values="0 0 0 0 0 0 0 0 0 0 0 0 0 0 0 0 0 0 0.25 0"/>
<feBlend mode="normal" in2="BackgroundImageFix" result="effect1_dropShadow_2165_2"/>
<feBlend mode="normal" in="SourceGraphic" in2="effect1_dropShadow_2165_2" result="shape"/>
</filter>
<filter id="filter1_d_2165_2" x="4.66219" y="0.0126638" width="211.61" height="72.2756" filterUnits="userSpaceOnUse" color-interpolation-filters="sRGB">
<feFlood flood-opacity="0" result="BackgroundImageFix"/>
<feColorMatrix in="SourceAlpha" type="matrix" values="0 0 0 0 0 0 0 0 0 0 0 0 0 0 0 0 0 0 127 0" result="hardAlpha"/>
<feOffset dy="4.15047"/>
<feGaussianBlur stdDeviation="10.9489"/>
<feColorMatrix type="matrix" values="0 0 0 0 0 0 0 0 0 0 0 0 0 0 0 0 0 0 0.25 0"/>
<feBlend mode="normal" in2="BackgroundImageFix" result="effect1_dropShadow_2165_2"/>
<feBlend mode="normal" in="SourceGraphic" in2="effect1_dropShadow_2165_2" result="shape"/>
</filter>
</defs>
</svg>
