<svg width="275" height="114" viewBox="0 0 275 114" fill="none" xmlns="http://www.w3.org/2000/svg">
<g filter="url(#filter0_d_17_852)">
<path d="M233.043 87C229.139 87 225.669 86.0686 222.632 84.2058C219.639 82.343 217.274 79.6571 215.539 76.1481C213.804 72.6391 212.936 68.3719 212.936 63.3467C212.936 58.3215 213.804 54.0543 215.539 50.5453C217.274 47.0363 219.639 44.3504 222.632 42.4876C225.669 40.6248 229.139 39.6934 233.043 39.6934C236.904 39.6934 240.331 40.6248 243.324 42.4876C246.361 44.3504 248.747 47.0363 250.482 50.5453C252.217 54.0543 253.085 58.3215 253.085 63.3467C253.085 68.3719 252.217 72.6391 250.482 76.1481C248.747 79.6571 246.361 82.343 243.324 84.2058C240.331 86.0686 236.904 87 233.043 87ZM233.043 76.473C234.431 76.473 235.646 76.0398 236.687 75.1733C237.772 74.3069 238.618 72.9207 239.225 71.0145C239.832 69.0651 240.136 66.5091 240.136 63.3467C240.136 60.1409 239.832 57.585 239.225 55.6789C238.618 53.7728 237.772 52.3865 236.687 51.5201C235.646 50.6536 234.431 50.2204 233.043 50.2204C231.655 50.2204 230.419 50.6536 229.334 51.5201C228.293 52.3865 227.447 53.7728 226.796 55.6789C226.189 57.585 225.885 60.1409 225.885 63.3467C225.885 66.5091 226.189 69.0651 226.796 71.0145C227.447 72.9207 228.293 74.3069 229.334 75.1733C230.419 76.0398 231.655 76.473 233.043 76.473Z" fill="white"/>
</g>
<g filter="url(#filter1_d_17_852)">
<path d="M193.202 86.0902V45.2168L198.733 50.5453H184.743V40.6031H206.086V86.0902H193.202Z" fill="white"/>
</g>
<g filter="url(#filter2_d_17_852)">
<path d="M121.994 86.0902V40.6031H142.817C146.981 40.6031 150.56 41.2746 153.553 42.6176C156.59 43.9605 158.933 45.91 160.581 48.4659C162.229 50.9785 163.054 53.9677 163.054 57.4334C163.054 60.8557 162.229 63.8232 160.581 66.3358C158.933 68.8485 156.59 70.7979 153.553 72.1842C150.56 73.5271 146.981 74.1986 142.817 74.1986H129.152L134.878 68.6102V86.0902H121.994ZM134.878 69.9748L129.152 64.0615H142.036C144.725 64.0615 146.721 63.4767 148.022 62.307C149.367 61.1373 150.04 59.5128 150.04 57.4334C150.04 55.3106 149.367 53.6644 148.022 52.4948C146.721 51.3251 144.725 50.7403 142.036 50.7403H129.152L134.878 44.8269V69.9748Z" fill="white"/>
</g>
<g filter="url(#filter3_d_17_852)">
<path d="M89.9337 87C86.2897 87 82.9277 86.4152 79.8477 85.2455C76.7677 84.0758 74.0781 82.4296 71.779 80.3069C69.5232 78.1408 67.7663 75.6282 66.5083 72.769C65.2502 69.9098 64.6212 66.7691 64.6212 63.3467C64.6212 59.9243 65.2502 56.7836 66.5083 53.9244C67.7663 51.0652 69.5232 48.5742 71.779 46.4515C74.0781 44.2855 76.7677 42.6176 79.8477 41.4479C82.9277 40.2783 86.2897 39.6934 89.9337 39.6934C93.621 39.6934 96.983 40.2783 100.02 41.4479C103.1 42.6176 105.768 44.2855 108.023 46.4515C110.279 48.5742 112.036 51.0652 113.294 53.9244C114.595 56.7836 115.246 59.9243 115.246 63.3467C115.246 66.7691 114.595 69.9315 113.294 72.834C112.036 75.6932 110.279 78.1842 108.023 80.3069C105.768 82.4296 103.1 84.0758 100.02 85.2455C96.983 86.4152 93.621 87 89.9337 87ZM89.9337 76.343C91.6689 76.343 93.274 76.0398 94.7489 75.4333C96.2672 74.8268 97.5686 73.9604 98.6531 72.834C99.781 71.6643 100.649 70.2781 101.256 68.6752C101.907 67.0723 102.232 65.2962 102.232 63.3467C102.232 61.3539 101.907 59.5778 101.256 58.0182C100.649 56.4153 99.781 55.0507 98.6531 53.9244C97.5686 52.7547 96.2672 51.8666 94.7489 51.2601C93.274 50.6536 91.6689 50.3504 89.9337 50.3504C88.1985 50.3504 86.5717 50.6536 85.0534 51.2601C83.5784 51.8666 82.277 52.7547 81.1491 53.9244C80.0646 55.0507 79.197 56.4153 78.5463 58.0182C77.939 59.5778 77.6353 61.3539 77.6353 63.3467C77.6353 65.2962 77.939 67.0723 78.5463 68.6752C79.197 70.2781 80.0646 71.6643 81.1491 72.834C82.277 73.9604 83.5784 74.8268 85.0534 75.4333C86.5717 76.0398 88.1985 76.343 89.9337 76.343Z" fill="white"/>
</g>
<g filter="url(#filter4_d_17_852)">
<path d="M35.9902 86.0902V50.8053H22V40.6031H62.7992V50.8053H48.8741V86.0902H35.9902Z" fill="white"/>
</g>
<g filter="url(#filter5_d_17_852)">
<path d="M85.0501 32.8054V18.2496H87.1532L94.5244 30.3725H94.566V18.2496H96.3151V32.8054H94.1912L86.8409 20.6825H86.7992V32.8054H85.0501Z" fill="white"/>
</g>
<g filter="url(#filter6_d_17_852)">
<path d="M77.2431 33.055C76.2436 33.055 75.3344 32.854 74.5154 32.4519C73.7102 32.0499 73.0647 31.44 72.5789 30.6221C72.093 29.7903 71.8501 28.7298 71.8501 27.4406V18.2496H73.5992V27.4614C73.5992 28.404 73.7519 29.1734 74.0573 29.7695C74.3765 30.3656 74.8138 30.8023 75.3691 31.0795C75.9244 31.3568 76.5629 31.4954 77.2848 31.4954C78.0205 31.4954 78.6591 31.3568 79.2004 31.0795C79.7418 30.8023 80.1652 30.3656 80.4706 29.7695C80.776 29.1734 80.9287 28.404 80.9287 27.4614V18.2496H82.6778V27.4406C82.6778 28.7298 82.4349 29.7903 81.949 30.6221C81.4632 31.44 80.8107 32.0499 79.9917 32.4519C79.1727 32.854 78.2565 33.055 77.2431 33.055Z" fill="white"/>
</g>
<g filter="url(#filter7_d_17_852)">
<path d="M61.3604 32.8054V18.2496H70.2308V19.6844H63.1095V24.7997H69.1689V26.2137H63.1095V32.8054H61.3604Z" fill="white"/>
</g>
<g filter="url(#filter8_d_17_852)">
<path d="M49.6883 32.8054V18.2496H54.3942C55.5325 18.2496 56.4626 18.4437 57.1845 18.8318C57.9063 19.2061 58.4408 19.7121 58.7878 20.3498C59.1348 20.9875 59.3084 21.7083 59.3084 22.5124C59.3084 23.2887 59.1279 24.0026 58.767 24.6542C58.4199 25.3057 57.8785 25.8256 57.1428 26.2137C56.4071 26.6019 55.4631 26.7959 54.3109 26.7959H51.4374V32.8054H49.6883ZM57.3927 32.8054L54.186 26.2969H56.1433L59.4541 32.8054H57.3927ZM51.4374 25.4235H54.2693C55.3798 25.4235 56.1919 25.1532 56.7055 24.6126C57.233 24.0719 57.4968 23.3788 57.4968 22.5332C57.4968 21.6737 57.24 20.9944 56.7264 20.4953C56.2266 19.9824 55.4007 19.726 54.2485 19.726H51.4374V25.4235Z" fill="white"/>
</g>
<g filter="url(#filter9_d_17_852)">
<path d="M40.3919 33.0549C38.962 33.0549 37.7057 32.743 36.623 32.1192C35.5541 31.4815 34.7142 30.6012 34.1034 29.4783C33.5065 28.3416 33.2081 27.0246 33.2081 25.5275C33.2081 24.0441 33.5065 22.7411 34.1034 21.6182C34.7142 20.4814 35.5541 19.5942 36.623 18.9565C37.7057 18.3188 38.962 18 40.3919 18C41.8356 18 43.0919 18.3188 44.1607 18.9565C45.2435 19.5942 46.0834 20.4814 46.6803 21.6182C47.2772 22.7411 47.5756 24.0441 47.5756 25.5275C47.5756 27.0246 47.2772 28.3416 46.6803 29.4783C46.0834 30.6012 45.2435 31.4815 44.1607 32.1192C43.0919 32.743 41.8356 33.0549 40.3919 33.0549ZM40.3919 31.5162C41.4608 31.5162 42.3978 31.2805 43.2029 30.8092C44.0219 30.324 44.6535 29.6378 45.0978 28.7505C45.5559 27.8495 45.7849 26.7751 45.7849 25.5275C45.7849 24.2798 45.5559 23.2124 45.0978 22.3252C44.6535 21.4241 44.0219 20.7379 43.2029 20.2666C42.3978 19.7952 41.4608 19.5596 40.3919 19.5596C39.323 19.5596 38.379 19.7952 37.56 20.2666C36.7548 20.7379 36.1232 21.4241 35.6651 22.3252C35.2209 23.2124 34.9988 24.2798 34.9988 25.5275C34.9988 26.7751 35.2209 27.8495 35.6651 28.7505C36.1232 29.6378 36.7548 30.324 37.56 30.8092C38.379 31.2805 39.323 31.5162 40.3919 31.5162Z" fill="white"/>
</g>
<g filter="url(#filter10_d_17_852)">
<path d="M22.9891 32.8054V18.2496H31.8595V19.6844H24.7382V24.7997H30.7975V26.2137H24.7382V32.8054H22.9891Z" fill="white"/>
</g>
<defs>
<filter id="filter0_d_17_852" x="191.039" y="21.9461" width="83.9441" height="91.1022" filterUnits="userSpaceOnUse" color-interpolation-filters="sRGB">
<feFlood flood-opacity="0" result="BackgroundImageFix"/>
<feColorMatrix in="SourceAlpha" type="matrix" values="0 0 0 0 0 0 0 0 0 0 0 0 0 0 0 0 0 0 127 0" result="hardAlpha"/>
<feOffset dy="4.15047"/>
<feGaussianBlur stdDeviation="10.9489"/>
<feColorMatrix type="matrix" values="0 0 0 0 0 0 0 0 0 0 0 0 0 0 0 0 0 0 0.25 0"/>
<feBlend mode="normal" in2="BackgroundImageFix" result="effect1_dropShadow_17_852"/>
<feBlend mode="normal" in="SourceGraphic" in2="effect1_dropShadow_17_852" result="shape"/>
</filter>
<filter id="filter1_d_17_852" x="162.845" y="22.8558" width="65.1388" height="89.2827" filterUnits="userSpaceOnUse" color-interpolation-filters="sRGB">
<feFlood flood-opacity="0" result="BackgroundImageFix"/>
<feColorMatrix in="SourceAlpha" type="matrix" values="0 0 0 0 0 0 0 0 0 0 0 0 0 0 0 0 0 0 127 0" result="hardAlpha"/>
<feOffset dy="4.15047"/>
<feGaussianBlur stdDeviation="10.9489"/>
<feColorMatrix type="matrix" values="0 0 0 0 0 0 0 0 0 0 0 0 0 0 0 0 0 0 0.25 0"/>
<feBlend mode="normal" in2="BackgroundImageFix" result="effect1_dropShadow_17_852"/>
<feBlend mode="normal" in="SourceGraphic" in2="effect1_dropShadow_17_852" result="shape"/>
</filter>
<filter id="filter2_d_17_852" x="100.096" y="22.8558" width="84.8552" height="89.2827" filterUnits="userSpaceOnUse" color-interpolation-filters="sRGB">
<feFlood flood-opacity="0" result="BackgroundImageFix"/>
<feColorMatrix in="SourceAlpha" type="matrix" values="0 0 0 0 0 0 0 0 0 0 0 0 0 0 0 0 0 0 127 0" result="hardAlpha"/>
<feOffset dy="4.15047"/>
<feGaussianBlur stdDeviation="10.9489"/>
<feColorMatrix type="matrix" values="0 0 0 0 0 0 0 0 0 0 0 0 0 0 0 0 0 0 0.25 0"/>
<feBlend mode="normal" in2="BackgroundImageFix" result="effect1_dropShadow_17_852"/>
<feBlend mode="normal" in="SourceGraphic" in2="effect1_dropShadow_17_852" result="shape"/>
</filter>
<filter id="filter3_d_17_852" x="42.7234" y="21.9461" width="94.4205" height="91.1022" filterUnits="userSpaceOnUse" color-interpolation-filters="sRGB">
<feFlood flood-opacity="0" result="BackgroundImageFix"/>
<feColorMatrix in="SourceAlpha" type="matrix" values="0 0 0 0 0 0 0 0 0 0 0 0 0 0 0 0 0 0 127 0" result="hardAlpha"/>
<feOffset dy="4.15047"/>
<feGaussianBlur stdDeviation="10.9489"/>
<feColorMatrix type="matrix" values="0 0 0 0 0 0 0 0 0 0 0 0 0 0 0 0 0 0 0.25 0"/>
<feBlend mode="normal" in2="BackgroundImageFix" result="effect1_dropShadow_17_852"/>
<feBlend mode="normal" in="SourceGraphic" in2="effect1_dropShadow_17_852" result="shape"/>
</filter>
<filter id="filter4_d_17_852" x="0.10219" y="22.8558" width="84.5949" height="89.2827" filterUnits="userSpaceOnUse" color-interpolation-filters="sRGB">
<feFlood flood-opacity="0" result="BackgroundImageFix"/>
<feColorMatrix in="SourceAlpha" type="matrix" values="0 0 0 0 0 0 0 0 0 0 0 0 0 0 0 0 0 0 127 0" result="hardAlpha"/>
<feOffset dy="4.15047"/>
<feGaussianBlur stdDeviation="10.9489"/>
<feColorMatrix type="matrix" values="0 0 0 0 0 0 0 0 0 0 0 0 0 0 0 0 0 0 0.25 0"/>
<feBlend mode="normal" in2="BackgroundImageFix" result="effect1_dropShadow_17_852"/>
<feBlend mode="normal" in="SourceGraphic" in2="effect1_dropShadow_17_852" result="shape"/>
</filter>
<filter id="filter5_d_17_852" x="63.1523" y="0.502234" width="55.0606" height="58.3515" filterUnits="userSpaceOnUse" color-interpolation-filters="sRGB">
<feFlood flood-opacity="0" result="BackgroundImageFix"/>
<feColorMatrix in="SourceAlpha" type="matrix" values="0 0 0 0 0 0 0 0 0 0 0 0 0 0 0 0 0 0 127 0" result="hardAlpha"/>
<feOffset dy="4.15047"/>
<feGaussianBlur stdDeviation="10.9489"/>
<feColorMatrix type="matrix" values="0 0 0 0 0 0 0 0 0 0 0 0 0 0 0 0 0 0 0.25 0"/>
<feBlend mode="normal" in2="BackgroundImageFix" result="effect1_dropShadow_17_852"/>
<feBlend mode="normal" in="SourceGraphic" in2="effect1_dropShadow_17_852" result="shape"/>
</filter>
<filter id="filter6_d_17_852" x="49.9523" y="0.502234" width="54.6233" height="58.601" filterUnits="userSpaceOnUse" color-interpolation-filters="sRGB">
<feFlood flood-opacity="0" result="BackgroundImageFix"/>
<feColorMatrix in="SourceAlpha" type="matrix" values="0 0 0 0 0 0 0 0 0 0 0 0 0 0 0 0 0 0 127 0" result="hardAlpha"/>
<feOffset dy="4.15047"/>
<feGaussianBlur stdDeviation="10.9489"/>
<feColorMatrix type="matrix" values="0 0 0 0 0 0 0 0 0 0 0 0 0 0 0 0 0 0 0.25 0"/>
<feBlend mode="normal" in2="BackgroundImageFix" result="effect1_dropShadow_17_852"/>
<feBlend mode="normal" in="SourceGraphic" in2="effect1_dropShadow_17_852" result="shape"/>
</filter>
<filter id="filter7_d_17_852" x="39.4626" y="0.502234" width="52.666" height="58.3515" filterUnits="userSpaceOnUse" color-interpolation-filters="sRGB">
<feFlood flood-opacity="0" result="BackgroundImageFix"/>
<feColorMatrix in="SourceAlpha" type="matrix" values="0 0 0 0 0 0 0 0 0 0 0 0 0 0 0 0 0 0 127 0" result="hardAlpha"/>
<feOffset dy="4.15047"/>
<feGaussianBlur stdDeviation="10.9489"/>
<feColorMatrix type="matrix" values="0 0 0 0 0 0 0 0 0 0 0 0 0 0 0 0 0 0 0.25 0"/>
<feBlend mode="normal" in2="BackgroundImageFix" result="effect1_dropShadow_17_852"/>
<feBlend mode="normal" in="SourceGraphic" in2="effect1_dropShadow_17_852" result="shape"/>
</filter>
<filter id="filter8_d_17_852" x="27.7905" y="0.502234" width="53.5614" height="58.3515" filterUnits="userSpaceOnUse" color-interpolation-filters="sRGB">
<feFlood flood-opacity="0" result="BackgroundImageFix"/>
<feColorMatrix in="SourceAlpha" type="matrix" values="0 0 0 0 0 0 0 0 0 0 0 0 0 0 0 0 0 0 127 0" result="hardAlpha"/>
<feOffset dy="4.15047"/>
<feGaussianBlur stdDeviation="10.9489"/>
<feColorMatrix type="matrix" values="0 0 0 0 0 0 0 0 0 0 0 0 0 0 0 0 0 0 0.25 0"/>
<feBlend mode="normal" in2="BackgroundImageFix" result="effect1_dropShadow_17_852"/>
<feBlend mode="normal" in="SourceGraphic" in2="effect1_dropShadow_17_852" result="shape"/>
</filter>
<filter id="filter9_d_17_852" x="11.3103" y="0.252662" width="58.1632" height="58.8506" filterUnits="userSpaceOnUse" color-interpolation-filters="sRGB">
<feFlood flood-opacity="0" result="BackgroundImageFix"/>
<feColorMatrix in="SourceAlpha" type="matrix" values="0 0 0 0 0 0 0 0 0 0 0 0 0 0 0 0 0 0 127 0" result="hardAlpha"/>
<feOffset dy="4.15047"/>
<feGaussianBlur stdDeviation="10.9489"/>
<feColorMatrix type="matrix" values="0 0 0 0 0 0 0 0 0 0 0 0 0 0 0 0 0 0 0.25 0"/>
<feBlend mode="normal" in2="BackgroundImageFix" result="effect1_dropShadow_17_852"/>
<feBlend mode="normal" in="SourceGraphic" in2="effect1_dropShadow_17_852" result="shape"/>
</filter>
<filter id="filter10_d_17_852" x="1.09126" y="0.502234" width="52.666" height="58.3515" filterUnits="userSpaceOnUse" color-interpolation-filters="sRGB">
<feFlood flood-opacity="0" result="BackgroundImageFix"/>
<feColorMatrix in="SourceAlpha" type="matrix" values="0 0 0 0 0 0 0 0 0 0 0 0 0 0 0 0 0 0 127 0" result="hardAlpha"/>
<feOffset dy="4.15047"/>
<feGaussianBlur stdDeviation="10.9489"/>
<feColorMatrix type="matrix" values="0 0 0 0 0 0 0 0 0 0 0 0 0 0 0 0 0 0 0.25 0"/>
<feBlend mode="normal" in2="BackgroundImageFix" result="effect1_dropShadow_17_852"/>
<feBlend mode="normal" in="SourceGraphic" in2="effect1_dropShadow_17_852" result="shape"/>
</filter>
</defs>
</svg>
