<svg width="142" height="74" viewBox="0 0 142 74" fill="none" xmlns="http://www.w3.org/2000/svg">
<g filter="url(#filter0_d_21_54)">
<path d="M111.327 47.8591C109.638 47.8591 108.136 47.4561 106.822 46.65C105.526 45.8439 104.503 44.6816 103.752 43.1631C103.002 41.6446 102.626 39.798 102.626 37.6234C102.626 35.4488 103.002 33.6022 103.752 32.0837C104.503 30.5652 105.526 29.4029 106.822 28.5968C108.136 27.7907 109.638 27.3876 111.327 27.3876C112.998 27.3876 114.481 27.7907 115.776 28.5968C117.09 29.4029 118.123 30.5652 118.874 32.0837C119.625 33.6022 120 35.4488 120 37.6234C120 39.798 119.625 41.6446 118.874 43.1631C118.123 44.6816 117.09 45.8439 115.776 46.65C114.481 47.4561 112.998 47.8591 111.327 47.8591ZM111.327 43.3037C111.928 43.3037 112.453 43.1162 112.904 42.7413C113.373 42.3663 113.739 41.7664 114.002 40.9416C114.265 40.098 114.396 38.9919 114.396 37.6234C114.396 36.2361 114.265 35.1301 114.002 34.3052C113.739 33.4803 113.373 32.8804 112.904 32.5055C112.453 32.1306 111.928 31.9431 111.327 31.9431C110.726 31.9431 110.191 32.1306 109.722 32.5055C109.272 32.8804 108.906 33.4803 108.624 34.3052C108.361 35.1301 108.23 36.2361 108.23 37.6234C108.23 38.9919 108.361 40.098 108.624 40.9416C108.906 41.7664 109.272 42.3663 109.722 42.7413C110.191 43.1162 110.726 43.3037 111.327 43.3037Z" fill="white"/>
</g>
<g filter="url(#filter1_d_21_54)">
<path d="M94.0863 47.4655V29.7778L96.4798 32.0837H90.4257V27.7813H99.6617V47.4655H94.0863Z" fill="white"/>
</g>
<g filter="url(#filter2_d_21_54)">
<path d="M63.2716 47.4655V27.7813H72.2824C74.0846 27.7813 75.6333 28.0719 76.9286 28.653C78.2427 29.2342 79.2564 30.0778 79.9697 31.1839C80.6831 32.2712 81.0398 33.5647 81.0398 35.0644C81.0398 36.5454 80.6831 37.8296 79.9697 38.9169C79.2564 40.0042 78.2427 40.8478 76.9286 41.4477C75.6333 42.0289 74.0846 42.3195 72.2824 42.3195H66.3691L68.847 39.9011V47.4655H63.2716ZM68.847 40.4916L66.3691 37.9327H71.9445C73.1084 37.9327 73.9719 37.6796 74.5351 37.1735C75.117 36.6673 75.408 35.9643 75.408 35.0644C75.408 34.1459 75.117 33.4335 74.5351 32.9273C73.9719 32.4211 73.1084 32.1681 71.9445 32.1681H66.3691L68.847 29.6091V40.4916Z" fill="white"/>
</g>
<g filter="url(#filter3_d_21_54)">
<path d="M49.3977 47.8591C47.8208 47.8591 46.366 47.6061 45.0331 47.0999C43.7003 46.5937 42.5364 45.8814 41.5414 44.9628C40.5653 44.0254 39.805 42.9381 39.2606 41.7008C38.7162 40.4635 38.444 39.1044 38.444 37.6234C38.444 36.1424 38.7162 34.7832 39.2606 33.546C39.805 32.3087 40.5653 31.2307 41.5414 30.3121C42.5364 29.3748 43.7003 28.653 45.0331 28.1469C46.366 27.6407 47.8208 27.3876 49.3977 27.3876C50.9934 27.3876 52.4482 27.6407 53.7623 28.1469C55.0952 28.653 56.2497 29.3748 57.2258 30.3121C58.202 31.2307 58.9623 32.3087 59.5067 33.546C60.0699 34.7832 60.3515 36.1424 60.3515 37.6234C60.3515 39.1044 60.0699 40.4729 59.5067 41.7289C58.9623 42.9662 58.202 44.0442 57.2258 44.9628C56.2497 45.8814 55.0952 46.5937 53.7623 47.0999C52.4482 47.6061 50.9934 47.8591 49.3977 47.8591ZM49.3977 43.2474C50.1486 43.2474 50.8432 43.1162 51.4815 42.8537C52.1385 42.5913 52.7017 42.2164 53.171 41.7289C53.6591 41.2228 54.0345 40.6229 54.2973 39.9292C54.5789 39.2356 54.7197 38.467 54.7197 37.6234C54.7197 36.761 54.5789 35.9924 54.2973 35.3175C54.0345 34.6239 53.6591 34.0334 53.171 33.546C52.7017 33.0398 52.1385 32.6555 51.4815 32.393C50.8432 32.1306 50.1486 31.9993 49.3977 31.9993C48.6468 31.9993 47.9428 32.1306 47.2858 32.393C46.6475 32.6555 46.0844 33.0398 45.5963 33.546C45.127 34.0334 44.7515 34.6239 44.4699 35.3175C44.2071 35.9924 44.0757 36.761 44.0757 37.6234C44.0757 38.467 44.2071 39.2356 44.4699 39.9292C44.7515 40.6229 45.127 41.2228 45.5963 41.7289C46.0844 42.2164 46.6475 42.5913 47.2858 42.8537C47.9428 43.1162 48.6468 43.2474 49.3977 43.2474Z" fill="white"/>
</g>
<g filter="url(#filter4_d_21_54)">
<path d="M26.0541 47.4655V32.1962H20V27.7813H37.6555V32.1962H31.6296V47.4655H26.0541Z" fill="white"/>
</g>
<g filter="url(#filter5_d_21_54)">
<path d="M47.2844 24.4069V18.108H48.1945L51.3843 23.3541H51.4023V18.108H52.1592V24.4069H51.2401L48.0593 19.1608H48.0413V24.4069H47.2844Z" fill="white"/>
</g>
<g filter="url(#filter6_d_21_54)">
<path d="M43.9059 24.5149C43.4734 24.5149 43.0799 24.4279 42.7255 24.2539C42.3771 24.08 42.0978 23.816 41.8875 23.4621C41.6773 23.1021 41.5721 22.6432 41.5721 22.0853V18.108H42.3291V22.0943C42.3291 22.5022 42.3951 22.8352 42.5273 23.0931C42.6655 23.3511 42.8547 23.54 43.095 23.66C43.3353 23.78 43.6116 23.84 43.924 23.84C44.2423 23.84 44.5187 23.78 44.753 23.66C44.9872 23.54 45.1705 23.3511 45.3026 23.0931C45.4348 22.8352 45.5009 22.5022 45.5009 22.0943V18.108H46.2578V22.0853C46.2578 22.6432 46.1526 23.1021 45.9424 23.4621C45.7321 23.816 45.4498 24.08 45.0954 24.2539C44.7409 24.4279 44.3445 24.5149 43.9059 24.5149Z" fill="white"/>
</g>
<g filter="url(#filter7_d_21_54)">
<path d="M37.0328 24.4069V18.108H40.8714V18.7289H37.7897V20.9425H40.4119V21.5544H37.7897V24.4069H37.0328Z" fill="white"/>
</g>
<g filter="url(#filter8_d_21_54)">
<path d="M31.9819 24.4069V18.108H34.0183C34.5109 18.108 34.9134 18.192 35.2258 18.3599C35.5381 18.5219 35.7694 18.7409 35.9196 19.0168C36.0698 19.2928 36.1449 19.6047 36.1449 19.9527C36.1449 20.2886 36.0668 20.5975 35.9106 20.8795C35.7604 21.1615 35.5261 21.3864 35.2077 21.5544C34.8894 21.7224 34.4809 21.8063 33.9823 21.8063H32.7388V24.4069H31.9819ZM35.3159 24.4069L33.9282 21.5904H34.7752L36.2079 24.4069H35.3159ZM32.7388 21.2124H33.9642C34.4448 21.2124 34.7962 21.0955 35.0185 20.8615C35.2468 20.6275 35.3609 20.3276 35.3609 19.9617C35.3609 19.5897 35.2498 19.2958 35.0275 19.0798C34.8113 18.8578 34.4538 18.7469 33.9552 18.7469H32.7388V21.2124Z" fill="white"/>
</g>
<g filter="url(#filter9_d_21_54)">
<path d="M27.9589 24.5149C27.3401 24.5149 26.7965 24.3799 26.3279 24.11C25.8654 23.834 25.5019 23.4531 25.2376 22.9672C24.9793 22.4752 24.8502 21.9053 24.8502 21.2574C24.8502 20.6156 24.9793 20.0516 25.2376 19.5657C25.5019 19.0738 25.8654 18.6899 26.3279 18.4139C26.7965 18.138 27.3401 18 27.9589 18C28.5836 18 29.1273 18.138 29.5898 18.4139C30.0584 18.6899 30.4218 19.0738 30.6801 19.5657C30.9385 20.0516 31.0676 20.6156 31.0676 21.2574C31.0676 21.9053 30.9385 22.4752 30.6801 22.9672C30.4218 23.4531 30.0584 23.834 29.5898 24.11C29.1273 24.3799 28.5836 24.5149 27.9589 24.5149ZM27.9589 23.849C28.4214 23.849 28.8269 23.747 29.1753 23.5431C29.5298 23.3331 29.8031 23.0361 29.9953 22.6522C30.1936 22.2623 30.2927 21.7974 30.2927 21.2574C30.2927 20.7175 30.1936 20.2556 29.9953 19.8717C29.8031 19.4817 29.5298 19.1848 29.1753 18.9808C28.8269 18.7769 28.4214 18.6749 27.9589 18.6749C27.4963 18.6749 27.0878 18.7769 26.7334 18.9808C26.385 19.1848 26.1117 19.4817 25.9134 19.8717C25.7212 20.2556 25.6251 20.7175 25.6251 21.2574C25.6251 21.7974 25.7212 22.2623 25.9134 22.6522C26.1117 23.0361 26.385 23.3331 26.7334 23.5431C27.0878 23.747 27.4963 23.849 27.9589 23.849Z" fill="white"/>
</g>
<g filter="url(#filter10_d_21_54)">
<path d="M20.428 24.4069V18.108H24.2666V18.7289H21.1849V20.9425H23.807V21.5544H21.1849V24.4069H20.428Z" fill="white"/>
</g>
<defs>
<filter id="filter0_d_21_54" x="80.7283" y="9.6403" width="61.1696" height="64.2671" filterUnits="userSpaceOnUse" color-interpolation-filters="sRGB">
<feFlood flood-opacity="0" result="BackgroundImageFix"/>
<feColorMatrix in="SourceAlpha" type="matrix" values="0 0 0 0 0 0 0 0 0 0 0 0 0 0 0 0 0 0 127 0" result="hardAlpha"/>
<feOffset dy="4.15047"/>
<feGaussianBlur stdDeviation="10.9489"/>
<feColorMatrix type="matrix" values="0 0 0 0 0 0 0 0 0 0 0 0 0 0 0 0 0 0 0.25 0"/>
<feBlend mode="normal" in2="BackgroundImageFix" result="effect1_dropShadow_21_54"/>
<feBlend mode="normal" in="SourceGraphic" in2="effect1_dropShadow_21_54" result="shape"/>
</filter>
<filter id="filter1_d_21_54" x="68.5278" y="10.034" width="53.0317" height="63.4798" filterUnits="userSpaceOnUse" color-interpolation-filters="sRGB">
<feFlood flood-opacity="0" result="BackgroundImageFix"/>
<feColorMatrix in="SourceAlpha" type="matrix" values="0 0 0 0 0 0 0 0 0 0 0 0 0 0 0 0 0 0 127 0" result="hardAlpha"/>
<feOffset dy="4.15047"/>
<feGaussianBlur stdDeviation="10.9489"/>
<feColorMatrix type="matrix" values="0 0 0 0 0 0 0 0 0 0 0 0 0 0 0 0 0 0 0.25 0"/>
<feBlend mode="normal" in2="BackgroundImageFix" result="effect1_dropShadow_21_54"/>
<feBlend mode="normal" in="SourceGraphic" in2="effect1_dropShadow_21_54" result="shape"/>
</filter>
<filter id="filter2_d_21_54" x="41.3738" y="10.034" width="61.5638" height="63.4798" filterUnits="userSpaceOnUse" color-interpolation-filters="sRGB">
<feFlood flood-opacity="0" result="BackgroundImageFix"/>
<feColorMatrix in="SourceAlpha" type="matrix" values="0 0 0 0 0 0 0 0 0 0 0 0 0 0 0 0 0 0 127 0" result="hardAlpha"/>
<feOffset dy="4.15047"/>
<feGaussianBlur stdDeviation="10.9489"/>
<feColorMatrix type="matrix" values="0 0 0 0 0 0 0 0 0 0 0 0 0 0 0 0 0 0 0.25 0"/>
<feBlend mode="normal" in2="BackgroundImageFix" result="effect1_dropShadow_21_54"/>
<feBlend mode="normal" in="SourceGraphic" in2="effect1_dropShadow_21_54" result="shape"/>
</filter>
<filter id="filter3_d_21_54" x="16.5462" y="9.6403" width="65.7031" height="64.2671" filterUnits="userSpaceOnUse" color-interpolation-filters="sRGB">
<feFlood flood-opacity="0" result="BackgroundImageFix"/>
<feColorMatrix in="SourceAlpha" type="matrix" values="0 0 0 0 0 0 0 0 0 0 0 0 0 0 0 0 0 0 127 0" result="hardAlpha"/>
<feOffset dy="4.15047"/>
<feGaussianBlur stdDeviation="10.9489"/>
<feColorMatrix type="matrix" values="0 0 0 0 0 0 0 0 0 0 0 0 0 0 0 0 0 0 0.25 0"/>
<feBlend mode="normal" in2="BackgroundImageFix" result="effect1_dropShadow_21_54"/>
<feBlend mode="normal" in="SourceGraphic" in2="effect1_dropShadow_21_54" result="shape"/>
</filter>
<filter id="filter4_d_21_54" x="-1.89781" y="10.034" width="61.4511" height="63.4798" filterUnits="userSpaceOnUse" color-interpolation-filters="sRGB">
<feFlood flood-opacity="0" result="BackgroundImageFix"/>
<feColorMatrix in="SourceAlpha" type="matrix" values="0 0 0 0 0 0 0 0 0 0 0 0 0 0 0 0 0 0 127 0" result="hardAlpha"/>
<feOffset dy="4.15047"/>
<feGaussianBlur stdDeviation="10.9489"/>
<feColorMatrix type="matrix" values="0 0 0 0 0 0 0 0 0 0 0 0 0 0 0 0 0 0 0.25 0"/>
<feBlend mode="normal" in2="BackgroundImageFix" result="effect1_dropShadow_21_54"/>
<feBlend mode="normal" in="SourceGraphic" in2="effect1_dropShadow_21_54" result="shape"/>
</filter>
<filter id="filter5_d_21_54" x="25.3866" y="0.360633" width="48.6704" height="50.0946" filterUnits="userSpaceOnUse" color-interpolation-filters="sRGB">
<feFlood flood-opacity="0" result="BackgroundImageFix"/>
<feColorMatrix in="SourceAlpha" type="matrix" values="0 0 0 0 0 0 0 0 0 0 0 0 0 0 0 0 0 0 127 0" result="hardAlpha"/>
<feOffset dy="4.15047"/>
<feGaussianBlur stdDeviation="10.9489"/>
<feColorMatrix type="matrix" values="0 0 0 0 0 0 0 0 0 0 0 0 0 0 0 0 0 0 0.25 0"/>
<feBlend mode="normal" in2="BackgroundImageFix" result="effect1_dropShadow_21_54"/>
<feBlend mode="normal" in="SourceGraphic" in2="effect1_dropShadow_21_54" result="shape"/>
</filter>
<filter id="filter6_d_21_54" x="19.6743" y="0.360633" width="48.4812" height="50.2025" filterUnits="userSpaceOnUse" color-interpolation-filters="sRGB">
<feFlood flood-opacity="0" result="BackgroundImageFix"/>
<feColorMatrix in="SourceAlpha" type="matrix" values="0 0 0 0 0 0 0 0 0 0 0 0 0 0 0 0 0 0 127 0" result="hardAlpha"/>
<feOffset dy="4.15047"/>
<feGaussianBlur stdDeviation="10.9489"/>
<feColorMatrix type="matrix" values="0 0 0 0 0 0 0 0 0 0 0 0 0 0 0 0 0 0 0.25 0"/>
<feBlend mode="normal" in2="BackgroundImageFix" result="effect1_dropShadow_21_54"/>
<feBlend mode="normal" in="SourceGraphic" in2="effect1_dropShadow_21_54" result="shape"/>
</filter>
<filter id="filter7_d_21_54" x="15.135" y="0.360633" width="47.6342" height="50.0946" filterUnits="userSpaceOnUse" color-interpolation-filters="sRGB">
<feFlood flood-opacity="0" result="BackgroundImageFix"/>
<feColorMatrix in="SourceAlpha" type="matrix" values="0 0 0 0 0 0 0 0 0 0 0 0 0 0 0 0 0 0 127 0" result="hardAlpha"/>
<feOffset dy="4.15047"/>
<feGaussianBlur stdDeviation="10.9489"/>
<feColorMatrix type="matrix" values="0 0 0 0 0 0 0 0 0 0 0 0 0 0 0 0 0 0 0.25 0"/>
<feBlend mode="normal" in2="BackgroundImageFix" result="effect1_dropShadow_21_54"/>
<feBlend mode="normal" in="SourceGraphic" in2="effect1_dropShadow_21_54" result="shape"/>
</filter>
<filter id="filter8_d_21_54" x="10.0841" y="0.360633" width="48.0217" height="50.0946" filterUnits="userSpaceOnUse" color-interpolation-filters="sRGB">
<feFlood flood-opacity="0" result="BackgroundImageFix"/>
<feColorMatrix in="SourceAlpha" type="matrix" values="0 0 0 0 0 0 0 0 0 0 0 0 0 0 0 0 0 0 127 0" result="hardAlpha"/>
<feOffset dy="4.15047"/>
<feGaussianBlur stdDeviation="10.9489"/>
<feColorMatrix type="matrix" values="0 0 0 0 0 0 0 0 0 0 0 0 0 0 0 0 0 0 0.25 0"/>
<feBlend mode="normal" in2="BackgroundImageFix" result="effect1_dropShadow_21_54"/>
<feBlend mode="normal" in="SourceGraphic" in2="effect1_dropShadow_21_54" result="shape"/>
</filter>
<filter id="filter9_d_21_54" x="2.95235" y="0.252662" width="50.0131" height="50.3105" filterUnits="userSpaceOnUse" color-interpolation-filters="sRGB">
<feFlood flood-opacity="0" result="BackgroundImageFix"/>
<feColorMatrix in="SourceAlpha" type="matrix" values="0 0 0 0 0 0 0 0 0 0 0 0 0 0 0 0 0 0 127 0" result="hardAlpha"/>
<feOffset dy="4.15047"/>
<feGaussianBlur stdDeviation="10.9489"/>
<feColorMatrix type="matrix" values="0 0 0 0 0 0 0 0 0 0 0 0 0 0 0 0 0 0 0.25 0"/>
<feBlend mode="normal" in2="BackgroundImageFix" result="effect1_dropShadow_21_54"/>
<feBlend mode="normal" in="SourceGraphic" in2="effect1_dropShadow_21_54" result="shape"/>
</filter>
<filter id="filter10_d_21_54" x="-1.46983" y="0.360633" width="47.6342" height="50.0946" filterUnits="userSpaceOnUse" color-interpolation-filters="sRGB">
<feFlood flood-opacity="0" result="BackgroundImageFix"/>
<feColorMatrix in="SourceAlpha" type="matrix" values="0 0 0 0 0 0 0 0 0 0 0 0 0 0 0 0 0 0 127 0" result="hardAlpha"/>
<feOffset dy="4.15047"/>
<feGaussianBlur stdDeviation="10.9489"/>
<feColorMatrix type="matrix" values="0 0 0 0 0 0 0 0 0 0 0 0 0 0 0 0 0 0 0.25 0"/>
<feBlend mode="normal" in2="BackgroundImageFix" result="effect1_dropShadow_21_54"/>
<feBlend mode="normal" in="SourceGraphic" in2="effect1_dropShadow_21_54" result="shape"/>
</filter>
</defs>
</svg>
